{"accessors" : [{"bufferView" : 0, "byteOffset" : 0, "componentType" : 5123, "count" : 6960, "type" : "SCALAR", "max" : [6959], "min" : [0]}, {"bufferView" : 1, "byteOffset" : 0, "componentType" : 5126, "count" : 6960, "type" : "VEC3", "max" : [5.50529670715332, 3.1619577407836914, 4.039051055908203], "min" : [-5.20052433013916, 2.8847174644470215, 3.724498987197876], "name" : "POSITION"}, {"bufferView" : 1, "byteOffset" : 12, "componentType" : 5126, "count" : 6960, "type" : "VEC3", "max" : [0.987488865852356, 0.999241054058075, 0.9954394698143005], "min" : [-0.9873709082603455, -0.9992159008979797, -0.99543297290802], "name" : "NORMAL"}, {"bufferView" : 1, "byteOffset" : 24, "componentType" : 5126, "count" : 6960, "type" : "VEC2", "max" : [0.6192787885665894, 0.9999604225158691], "min" : [0.011782228946685791, 0.9812179803848267], "name" : "TEXCOORD_0"}, {"bufferView" : 0, "byteOffset" : 13920, "componentType" : 5123, "count" : 8064, "type" : "SCALAR", "max" : [8063], "min" : [0]}, {"bufferView" : 2, "byteOffset" : 0, "componentType" : 5126, "count" : 8064, "type" : "VEC3", "max" : [5.633951187133789, 3.541224479675293, 5.07745361328125], "min" : [-5.329065322875977, 0.002965569496154785, 3.9292855262756348], "name" : "POSITION"}, {"bufferView" : 2, "byteOffset" : 12, "componentType" : 5126, "count" : 8064, "type" : "VEC3", "max" : [0.9986869692802429, 1, 0.9953696727752686], "min" : [-0.9987457990646362, -0.9954070448875427, -0.9987677931785583], "name" : "NORMAL"}, {"bufferView" : 2, "byteOffset" : 24, "componentType" : 5126, "count" : 8064, "type" : "VEC2", "max" : [0.7636816501617432, 1], "min" : [0, 0.15273070335388184], "name" : "TEXCOORD_0"}, {"bufferView" : 0, "byteOffset" : 30048, "componentType" : 5123, "count" : 8304, "type" : "SCALAR", "max" : [1809], "min" : [0]}, {"bufferView" : 3, "byteOffset" : 0, "componentType" : 5126, "count" : 1810, "type" : "VEC3", "max" : [5.9575018882751465, 3.3180813789367676, 4.046014785766602], "min" : [-5.654982089996338, -0.09716719388961792, -4.6376800537109375], "name" : "POSITION"}, {"bufferView" : 3, "byteOffset" : 12, "componentType" : 5126, "count" : 1810, "type" : "VEC3", "max" : [0.9992669820785522, 0.9741947650909424, 0.9969345331192017], "min" : [-0.9993065595626831, -0.987874448299408, -0.9860345125198364], "name" : "NORMAL"}, {"bufferView" : 3, "byteOffset" : 24, "componentType" : 5126, "count" : 1810, "type" : "VEC2", "max" : [1, 0.9999825358390808], "min" : [0.03534674644470215, 0.029326200485229492], "name" : "TEXCOORD_0"}, {"bufferView" : 0, "byteOffset" : 46656, "componentType" : 5123, "count" : 4560, "type" : "SCALAR", "max" : [915], "min" : [0]}, {"bufferView" : 4, "byteOffset" : 0, "componentType" : 5126, "count" : 916, "type" : "VEC3", "max" : [5.442811012268066, 2.9649486541748047, 4.330630302429199], "min" : [-5.137482166290283, 2.7965476512908936, 4.153318405151367], "name" : "POSITION"}, {"bufferView" : 4, "byteOffset" : 12, "componentType" : 5126, "count" : 916, "type" : "VEC3", "max" : [0.980659544467926, 0.9990859627723694, 0.9974584579467773], "min" : [-0.9806585311889648, -0.9990876913070679, -0.9974589943885803], "name" : "NORMAL"}, {"bufferView" : 4, "byteOffset" : 24, "componentType" : 5126, "count" : 916, "type" : "VEC2", "max" : [0.49675798416137695, 0.9999637007713318], "min" : [0.09425792843103409, 0.9696122407913208], "name" : "TEXCOORD_0"}, {"bufferView" : 0, "byteOffset" : 55776, "componentType" : 5123, "count" : 6420, "type" : "SCALAR", "max" : [6419], "min" : [0]}, {"bufferView" : 5, "byteOffset" : 0, "componentType" : 5126, "count" : 6420, "type" : "VEC3", "max" : [-3.667482852935791, 3.030272960662842, 4.475492000579834], "min" : [-4.318441867828369, 2.72279691696167, 4.3417863845825195], "name" : "POSITION"}, {"bufferView" : 5, "byteOffset" : 12, "componentType" : 5126, "count" : 6420, "type" : "VEC3", "max" : [0.9831542372703552, 0.9967539310455322, 0.9964480400085449], "min" : [-0.9831299781799316, -0.9967272877693176, -0.9985020160675049], "name" : "NORMAL"}, {"bufferView" : 5, "byteOffset" : 24, "componentType" : 5126, "count" : 6420, "type" : "VEC3", "max" : [0, 0, 0], "min" : [0, 0, 0], "name" : "COLOR_0"}, {"bufferView" : 0, "byteOffset" : 68616, "componentType" : 5123, "count" : 12840, "type" : "SCALAR", "max" : [12839], "min" : [0]}, {"bufferView" : 6, "byteOffset" : 0, "componentType" : 5126, "count" : 12840, "type" : "VEC3", "max" : [5.655612468719482, 3.094820737838745, 3.8858699798583984], "min" : [-5.376140594482422, 2.829488515853882, 3.228055238723755], "name" : "POSITION"}, {"bufferView" : 6, "byteOffset" : 12, "componentType" : 5126, "count" : 12840, "type" : "VEC3", "max" : [0.9897125959396362, 0.9951211810112, 0.9927375316619873], "min" : [-0.9878259301185608, -0.9954310059547424, -0.9927251935005188], "name" : "NORMAL"}, {"bufferView" : 6, "byteOffset" : 24, "componentType" : 5126, "count" : 12840, "type" : "VEC3", "max" : [0, 0, 0], "min" : [0, 0, 0], "name" : "COLOR_0"}, {"bufferView" : 0, "byteOffset" : 94296, "componentType" : 5123, "count" : 9336, "type" : "SCALAR", "max" : [9335], "min" : [0]}, {"bufferView" : 7, "byteOffset" : 0, "componentType" : 5126, "count" : 9336, "type" : "VEC3", "max" : [4.827704429626465, 3.2694854736328125, 4.9812331199646], "min" : [-4.552763938903809, 0.266387939453125, 4.250670433044434], "name" : "POSITION"}, {"bufferView" : 7, "byteOffset" : 12, "componentType" : 5126, "count" : 9336, "type" : "VEC3", "max" : [0.9989177584648132, 0.9954630136489868, 0.9942706823348999], "min" : [-0.9991216063499451, -0.9948964715003967, -0.9942702054977417], "name" : "NORMAL"}, {"bufferView" : 7, "byteOffset" : 24, "componentType" : 5126, "count" : 9336, "type" : "VEC2", "max" : [0.9852998852729797, 0.9999730587005615], "min" : [0, 0.0723143219947815], "name" : "TEXCOORD_0"}], "asset" : {"generator" : "Aspose.3D 24.9.0", "version" : "2.0"}, "buffers" : [{"uri" : "data:application/octet-stream;base64,", "byteLength" : 1673112}], "bufferViews" : [{"buffer" : 0, "byteOffset" : 0, "byteLength" : 112968, "target" : 34963}, {"buffer" : 0, "byteOffset" : 112972, "byteLength" : 222720, "byteStride" : 32, "target" : 34962}, {"buffer" : 0, "byteOffset" : 335696, "byteLength" : 258048, "byteStride" : 32, "target" : 34962}, {"buffer" : 0, "byteOffset" : 593748, "byteLength" : 57920, "byteStride" : 32, "target" : 34962}, {"buffer" : 0, "byteOffset" : 651672, "byteLength" : 29312, "byteStride" : 32, "target" : 34962}, {"buffer" : 0, "byteOffset" : 680988, "byteLength" : 231120, "byteStride" : 36, "target" : 34962}, {"buffer" : 0, "byteOffset" : 912112, "byteLength" : 462240, "byteStride" : 36, "target" : 34962}, {"buffer" : 0, "byteOffset" : 1374356, "byteLength" : 298752, "byteStride" : 32, "target" : 34962}], "materials" : [{"name" : "standardSurface4", "pbrMetallicRoughness" : {"baseColorFactor" : [0, 0, 0, 1], "metallicFactor" : 1, "roughnessFactor" : 1}, "emissiveFactor" : [0, 0, 0], "alphaMode" : "OPAQUE", "doubleSided" : false}], "meshes" : [{"primitives" : [{"attributes" : {"POSITION" : 1, "NORMAL" : 2, "TEXCOORD_0" : 3}, "indices" : 0, "material" : 0, "mode" : 4}], "name" : ""}, {"primitives" : [{"attributes" : {"POSITION" : 5, "NORMAL" : 6, "TEXCOORD_0" : 7}, "indices" : 4, "material" : 0, "mode" : 4}], "name" : ""}, {"primitives" : [{"attributes" : {"POSITION" : 9, "NORMAL" : 10, "TEXCOORD_0" : 11}, "indices" : 8, "material" : 0, "mode" : 4}], "name" : ""}, {"primitives" : [{"attributes" : {"POSITION" : 13, "NORMAL" : 14, "TEXCOORD_0" : 15}, "indices" : 12, "material" : 0, "mode" : 4}], "name" : ""}, {"primitives" : [{"attributes" : {"POSITION" : 17, "NORMAL" : 18, "COLOR_0" : 19}, "indices" : 16, "material" : 0, "mode" : 4}], "name" : ""}, {"primitives" : [{"attributes" : {"POSITION" : 21, "NORMAL" : 22, "COLOR_0" : 23}, "indices" : 20, "material" : 0, "mode" : 4}], "name" : ""}, {"primitives" : [{"attributes" : {"POSITION" : 25, "NORMAL" : 26, "TEXCOORD_0" : 27}, "indices" : 24, "material" : 0, "mode" : 4}], "name" : ""}], "nodes" : [{"mesh" : 0, "name" : "Hooks_geo"}, {"mesh" : 1, "name" : "Frame_geo"}, {"mesh" : 2, "name" : "Splints_geo"}, {"mesh" : 3, "name" : "Chrome_geo"}, {"mesh" : 4, "name" : "Badge_RayBan_geo1"}, {"mesh" : 5, "name" : "Badge_RayBan_geo"}, {"mesh" : 6, "name" : "Glass_geo"}, {"children" : [0, 1, 2, 3, 4, 5, 6], "name" : "Sunglasses_GRP"}], "scene" : 0, "scenes" : [{"nodes" : [7]}]}